HIERARCHY
ROOT hip
{
  OFFSET 0 0 0
  CHANNELS 6 Xposition Yposition Zposition Zrotation Yrotation Xrotation
  JOINT abdomen
  {
    OFFSET 0 20.6881 -0.73152
    CHANNELS 3 Zrotation Xrotation Yrotation
    JOINT chest
    {
      OFFSET 0 11.7043 -0.48768
      CHANNELS 3 Zrotation Xrotation Yrotation
      JOINT neck
      {
        OFFSET 0 22.1894 -2.19456
        CHANNELS 3 Zrotation Xrotation Yrotation
        JOINT head
        {
          OFFSET -0.24384 7.07133 1.2192
          CHANNELS 3 Zrotation Xrotation Yrotation
          JOINT leftEye
          {
            OFFSET 4.14528 8.04674 8.04672
            CHANNELS 3 Zrotation Xrotation Yrotation
            End Site
            {
              OFFSET 1 0 0
            }
          }
          JOINT rightEye
          {
            OFFSET -3.6576 8.04674 8.04672
            CHANNELS 3 Zrotation Xrotation Yrotation
            End Site
            {
              OFFSET 1 0 0
            }
          }
        }
      }
      JOINT rCollar
      {
        OFFSET -2.68224 19.2634 -4.8768
        CHANNELS 3 Zrotation Xrotation Yrotation
        JOINT rShldr
        {
          OFFSET -8.77824 -1.95073 1.46304
          CHANNELS 3 Zrotation Xrotation Yrotation
          JOINT rForeArm
          {
            OFFSET -28.1742 -1.7115 0.48768
            CHANNELS 3 Zrotation Xrotation Yrotation
            JOINT rHand
            {
              OFFSET -22.5879 0.773209 7.07136
              CHANNELS 3 Zrotation Xrotation Yrotation
              JOINT rThumb1
              {
                OFFSET -1.2192 -0.487915 3.41376
                CHANNELS 3 Zrotation Xrotation Yrotation
                JOINT rThumb2
                {
                  OFFSET -3.37035 -0.52449 3.41376
                  CHANNELS 3 Zrotation Xrotation Yrotation
                  End Site
                  {
                    OFFSET -1.78271 -1.18214 1.43049
                  }
                }
              }
              JOINT rIndex1
              {
                OFFSET -7.75947 0.938293 5.60832
                CHANNELS 3 Zrotation Xrotation Yrotation
                JOINT rIndex2
                {
                  OFFSET -2.54057 -0.884171 1.56538
                  CHANNELS 3 Zrotation Xrotation Yrotation
                  End Site
                  {
                    OFFSET -1.62519 -0.234802 1.16502
                  }
                }
              }
              JOINT rMid1
              {
                OFFSET -8.24714 1.18213 3.41376
                CHANNELS 3 Zrotation Xrotation Yrotation
                JOINT rMid2
                {
                  OFFSET -3.10165 -0.590103 1.0647
                  CHANNELS 3 Zrotation Xrotation Yrotation
                  End Site
                  {
                    OFFSET -2.48547 -0.328903 0.83742
                  }
                }
              }
              JOINT rRing1
              {
                OFFSET -8.82822 0.546677 1.51678
                CHANNELS 3 Zrotation Xrotation Yrotation
                JOINT rRing2
                {
                  OFFSET -2.60934 -0.819778 -0.0198488
                  CHANNELS 3 Zrotation Xrotation Yrotation
                  End Site
                  {
                    OFFSET -2.33842 -0.294052 0.168128
                  }
                }
              }
              JOINT rPinky1
              {
                OFFSET -8.27202 -0.0477905 -0.4584
                CHANNELS 3 Zrotation Xrotation Yrotation
                JOINT rPinky2
                {
                  OFFSET -1.82734 -0.647385 -0.700984
                  CHANNELS 3 Zrotation Xrotation Yrotation
                  End Site
                  {
                    OFFSET -1.69225 -0.51767 -0.607171
                  }
                }
              }
            }
          }
        }
      }
      JOINT lCollar
      {
        OFFSET 2.68224 19.2634 -4.8768
        CHANNELS 3 Zrotation Xrotation Yrotation
        JOINT lShldr
        {
          OFFSET 8.77824 -1.95073 1.46304
          CHANNELS 3 Zrotation Xrotation Yrotation
          JOINT lForeArm
          {
            OFFSET 28.1742 -1.7115 0.48768
            CHANNELS 3 Zrotation Xrotation Yrotation
            JOINT lHand
            {
              OFFSET 22.5879 0.773209 7.07136
              CHANNELS 3 Zrotation Xrotation Yrotation
              JOINT lThumb1
              {
                OFFSET 1.2192 -0.487915 3.41376
                CHANNELS 3 Zrotation Xrotation Yrotation
                JOINT lThumb2
                {
                  OFFSET 3.37035 -0.52449 3.41376
                  CHANNELS 3 Zrotation Xrotation Yrotation
                  End Site
                  {
                    OFFSET 1.78271 -1.18214 1.43049
                  }
                }
              }
              JOINT lIndex1
              {
                OFFSET 7.75947 0.938293 5.60832
                CHANNELS 3 Zrotation Xrotation Yrotation
                JOINT lIndex2
                {
                  OFFSET 2.54057 -0.884171 1.56538
                  CHANNELS 3 Zrotation Xrotation Yrotation
                  End Site
                  {
                    OFFSET 1.62519 -0.234802 1.16502
                  }
                }
              }
              JOINT lMid1
              {
                OFFSET 8.24714 1.18213 3.41376
                CHANNELS 3 Zrotation Xrotation Yrotation
                JOINT lMid2
                {
                  OFFSET 3.10165 -0.590103 1.0647
                  CHANNELS 3 Zrotation Xrotation Yrotation
                  End Site
                  {
                    OFFSET 2.48547 -0.328903 0.83742
                  }
                }
              }
              JOINT lRing1
              {
                OFFSET 8.82822 0.546677 1.51678
                CHANNELS 3 Zrotation Xrotation Yrotation
                JOINT lRing2
                {
                  OFFSET 2.60934 -0.819778 -0.0198488
                  CHANNELS 3 Zrotation Xrotation Yrotation
                  End Site
                  {
                    OFFSET 2.33842 -0.294052 0.168128
                  }
                }
              }
              JOINT lPinky1
              {
                OFFSET 8.27202 -0.0477905 -0.4584
                CHANNELS 3 Zrotation Xrotation Yrotation
                JOINT lPinky2
                {
                  OFFSET 1.82734 -0.647385 -0.700984
                  CHANNELS 3 Zrotation Xrotation Yrotation
                  End Site
                  {
                    OFFSET 1.69225 -0.51767 -0.607171
                  }
                }
              }
            }
          }
        }
      }
    }
  }
  JOINT rButtock
  {
    OFFSET -8.77824 4.35084 1.2192
    CHANNELS 3 Zrotation Xrotation Yrotation
    JOINT rThigh
    {
      OFFSET 0 -1.70687 -2.19456
      CHANNELS 3 Zrotation Xrotation Yrotation
      JOINT rShin
      {
        OFFSET 0 -36.8199 0.73152
        CHANNELS 3 Zrotation Xrotation Yrotation
        JOINT rFoot
        {
          OFFSET 0.73152 -45.1104 -5.12064
          CHANNELS 3 Zrotation Xrotation Yrotation
          End Site
          {
            OFFSET -1.1221 -3.69964 12.103
          }
        }
      }
    }
  }
  JOINT lButtock
  {
    OFFSET 8.77824 4.35084 1.2192
    CHANNELS 3 Zrotation Xrotation Yrotation
    JOINT lThigh
    {
      OFFSET 0 -1.70687 -2.19456
      CHANNELS 3 Zrotation Xrotation Yrotation
      JOINT lShin
      {
        OFFSET 0 -36.8199 0.73152
        CHANNELS 3 Zrotation Xrotation Yrotation
        JOINT lFoot
        {
          OFFSET -0.73152 -45.1104 -5.12064
          CHANNELS 3 Zrotation Xrotation Yrotation
          End Site
          {
            OFFSET 1.1221 -3.69964 12.103
          }
        }
      }
    }
  }
}
MOTION
Frames:	5
Frame Time:	0.00833333
62.4044 78.4984 24.9996 0.0 0.0 0.0 2.42164 -0.000250657 0.0655289 0.667694 0.0102412 0.115563 -6.22089e-14 -7.95139e-16 -2.48484e-17 -1.86072e-13 3.18055e-15 2.48481e-17 -0.0 0.0 0.0 -0.0 0.0 0.0 -3.07647e-14 -7.74561e-17 1.49089e-16 -6.48633e-13 -1.45982e-15 -1.39149e-15 -1.12427e-11 3.29366e-12 1.17681e-13 -1.28268e-10 -3.61711e-12 -2.41722e-13 -3.0266e-10 -7.01607e-13 -2.22639e-13 -5.2269e-10 -1.21497e-12 -3.91208e-13 -3.02652e-10 -6.98927e-13 -2.3218e-13 7.73091 5.47488 0.417314 -3.0266e-10 -7.0171e-13 -2.25819e-13 2.90554 0.965183 0.102902 -3.02649e-10 -7.01213e-13 -2.29e-13 10.2786 0.731801 0.0259123 -3.0266e-10 -7.00915e-13 -2.22639e-13 2.22167 -0.733487 -0.20892 -3.08606e-14 -7.76503e-17 -2.48481e-16 -6.5379e-13 -1.16165e-15 -2.98177e-15 -1.11811e-11 -3.41293e-12 9.85972e-14 -1.28379e-10 3.10869e-12 -2.22639e-13 -3.02748e-10 -6.68371e-13 -2.44903e-13 -5.22831e-10 -1.1609e-12 -4.0234e-13 -3.02755e-10 -6.66724e-13 -2.35361e-13 -7.73091 5.47488 -0.417314 -3.02748e-10 -6.68215e-13 -2.38542e-13 -2.90554 0.965183 -0.102902 -3.02755e-10 -6.68513e-13 -2.40132e-13 -10.2786 0.731801 -0.0259123 -3.02744e-10 -6.66326e-13 -2.44903e-13 -2.22167 -0.733487 0.20892 -2.03217e-16 0.0 -3.88251e-19 2.31835 -8.13354 -0.241858 0.00614464 9.15848 0.156808 -0.520558 -1.03427 0.0376612 2.03217e-16 0.0 3.88251e-19 1.3642 -1.92971 -0.00552224 0.00877364 -2.07863 0.072175 0.474007 3.99892 -0.134704
68.7803 76.3602 19.8242 -52.9556 89.8678 -56.0102 2.33849 0.31085 -0.287437 0.728384 0.645074 0.0321603 -4.28925 -0.134866 -3.86872 6.02886 -0.340971 -6.31014 -0.0 0.0 0.0 -0.0 0.0 0.0 -2.5627e-14 3.47112e-13 -4.08402e-15 -2.1875 1.29106e-09 7.13205e-11 -6.44402e-12 4.13863e-11 1.3415e-12 -1.16991e-10 1.97913e-10 1.74744e-11 -2.67593e-10 5.20521e-10 4.10066e-11 -4.6207e-10 8.99426e-10 7.08683e-11 -2.67588e-10 5.20524e-10 4.10028e-11 7.73091 5.47488 0.417314 -2.67594e-10 5.20522e-10 4.10053e-11 2.90554 0.965183 0.102902 -2.67583e-10 5.20518e-10 4.10031e-11 10.2786 0.731801 0.0259123 -2.67595e-10 5.20515e-10 4.10085e-11 2.22167 -0.733487 -0.20892 -2.57108e-14 3.47113e-13 -4.42723e-15 2.1875 1.29106e-09 -7.13237e-11 -1.43404e-11 2.48153e-11 -1.47538e-12 -1.2084e-10 1.47394e-10 -2.11643e-11 -2.93423e-10 3.7365e-10 -4.91377e-11 -5.06727e-10 6.45303e-10 -8.48662e-11 -2.93428e-10 3.73643e-10 -4.9128e-11 -7.73091 5.47488 -0.417314 -2.93423e-10 3.73649e-10 -4.9134e-11 -2.90554 0.965183 -0.102902 -2.93428e-10 3.73642e-10 -4.91339e-11 -10.2786 0.731801 -0.0259123 -2.93419e-10 3.73651e-10 -4.91411e-11 -2.22167 -0.733487 0.20892 -2.03217e-16 0.0 -3.88251e-19 -0.890623 -13.1444 -2.62862 0.013336 22.4506 0.372454 -0.288995 4.02525 4.05751 2.03217e-16 0.0 3.88251e-19 4.22435 -8.96029 1.56294 0.011887 14.3226 -0.136202 0.49668 5.15888 -0.162239
68.7759 76.358 19.8269 -64.9964 89.8576 -68.0312 2.25371 0.639732 -0.661308 0.794171 1.31523 -0.0562641 -8.84623 -0.278671 -7.95963 12.3288 -0.68348 -12.9827 -0.0 0.0 0.0 -0.0 0.0 0.0 -2.05387e-14 7.51757e-13 -9.01054e-15 -4.5 2.65591e-09 1.46718e-10 -1.54287e-12 7.82384e-11 2.48958e-12 -1.07277e-10 3.91997e-10 3.46698e-11 -2.35678e-10 1.02278e-09 8.09376e-11 -4.0689e-10 1.76729e-09 1.39885e-10 -2.35674e-10 1.02279e-09 8.09399e-11 7.73091 5.47488 0.417314 -2.3568e-10 1.02278e-09 8.09382e-11 2.90554 0.965183 0.102902 -2.35667e-10 1.02278e-09 8.09371e-11 10.2786 0.731801 0.0259123 -2.35681e-10 1.02277e-09 8.09413e-11 2.22167 -0.733487 -0.20892 -2.06111e-14 7.51758e-13 -9.29629e-15 4.5 2.65591e-09 -1.4672e-10 -1.79e-11 5.85219e-11 -3.29505e-12 -1.15303e-10 3.21178e-10 -4.49695e-11 -2.89322e-10 8.23941e-10 -1.04783e-10 -4.99646e-10 1.423e-09 -1.80995e-10 -2.89324e-10 8.23926e-10 -1.04773e-10 -7.73091 5.47488 -0.417314 -2.89321e-10 8.2394e-10 -1.04782e-10 -2.90554 0.965183 -0.102902 -2.89326e-10 8.23925e-10 -1.0478e-10 -10.2786 0.731801 -0.0259123 -2.89317e-10 8.23941e-10 -1.0479e-10 -2.22167 -0.733487 0.20892 -2.03217e-16 0.0 -3.88251e-19 -4.76362 -18.4026 -5.28641 -0.115787 36.5027 0.677347 -0.822624 9.29742 8.39452 2.03217e-16 0.0 3.88251e-19 7.67955 -16.3799 3.31574 0.1631 31.663 -0.408566 0.521857 6.38532 -0.191533
68.7928 76.3521 19.8342 -77.9306 89.8216 -80.9228 2.18367 0.932923 -0.993489 0.855309 1.91473 -0.134727 -12.922 -0.397232 -11.6064 17.8658 -0.97348 -18.9329 -0.0 0.0 0.0 -0.0 0.0 0.0 -1.53516e-14 1.04149e-12 -1.25502e-14 -6.5625 3.8732e-09 2.13964e-10 3.15337e-12 1.17571e-10 3.78913e-12 -9.44366e-11 6.00973e-10 5.29068e-11 -1.9746e-10 1.56297e-09 1.23465e-10 -3.40831e-10 2.70071e-09 2.13387e-10 -1.97458e-10 1.56297e-09 1.23473e-10 7.73091 5.47488 0.417314 -1.97464e-10 1.56297e-09 1.23467e-10 2.90554 0.965183 0.102902 -1.9745e-10 1.56296e-09 1.23467e-10 10.2786 0.731801 0.0259123 -1.97465e-10 1.56295e-09 1.23471e-10 2.22167 -0.733487 -0.20892 -1.54114e-14 1.04149e-12 -1.27847e-14 6.5625 3.8732e-09 -2.13965e-10 -2.06589e-11 8.12717e-11 -4.62333e-12 -1.05761e-10 4.35963e-10 -6.30475e-11 -2.74773e-10 1.12229e-09 -1.46923e-10 -4.7452e-10 1.93823e-09 -2.53794e-10 -2.74773e-10 1.12226e-09 -1.46913e-10 -7.73091 5.47488 -0.417314 -2.74772e-10 1.12228e-09 -1.46925e-10 -2.90554 0.965183 -0.102902 -2.74776e-10 1.12226e-09 -1.46922e-10 -10.2786 0.731801 -0.0259123 -2.74769e-10 1.12228e-09 -1.46934e-10 -2.22167 -0.733487 0.20892 -2.03217e-16 0.0 -3.88251e-19 -8.6584 -23.0126 -7.82655 -0.428244 49.0307 1.10284 -1.99108 13.855 12.4345 2.03217e-16 0.0 3.88251e-19 11.1845 -22.9514 5.04274 0.504035 47.1226 -0.793862 0.545405 7.47877 -0.217848
68.8134 76.3436 19.841 -84.7311 89.7855 -87.713 2.1423 1.13701 -1.22133 0.900892 2.33763 -0.188199 -15.7543 -0.46012 -14.1426 21.645 -1.17793 -23.0752 -0.0 0.0 0.0 -0.0 0.0 0.0 -9.91729e-15 1.04396e-12 -1.26228e-14 -8.0 4.72161e-09 2.60833e-10 7.33734e-12 1.63107e-10 5.46737e-12 -7.37826e-11 8.47179e-10 7.37475e-11 -1.43489e-10 2.19796e-09 1.72485e-10 -2.47572e-10 3.79803e-09 2.98106e-10 -1.43488e-10 2.19796e-09 1.72494e-10 7.73091 5.47488 0.417314 -1.43493e-10 2.19796e-09 1.72488e-10 2.90554 0.965183 0.102902 -1.43479e-10 2.19795e-09 1.72488e-10 10.2786 0.731801 0.0259123 -1.43494e-10 2.19794e-09 1.72491e-10 2.22167 -0.733487 -0.20892 -9.96184e-15 1.04396e-12 -1.28216e-14 8.0 4.72161e-09 -2.60833e-10 -2.14159e-11 7.66297e-11 -4.72312e-12 -8.6207e-11 4.03252e-10 -6.68076e-11 -2.34106e-10 1.04076e-09 -1.553e-10 -4.04283e-10 1.79728e-09 -2.68269e-10 -2.34105e-10 1.04074e-09 -1.55291e-10 -7.73091 5.47488 -0.417314 -2.34105e-10 1.04076e-09 -1.55303e-10 -2.90554 0.965183 -0.102902 -2.34108e-10 1.04074e-09 -1.55299e-10 -10.2786 0.731801 -0.0259123 -2.34102e-10 1.04076e-09 -1.55313e-10 -2.22167 -0.733487 0.20892 -2.03217e-16 0.0 -3.88251e-19 -11.6204 -26.1389 -9.70943 -0.857232 57.7519 1.58849 -3.20615 16.904 15.4009 2.03217e-16 0.0 3.88251e-19 13.9092 -27.4683 6.38795 0.977948 57.8825 -1.26807 0.562488 8.23976 -0.236301
